<svg xmlns="http://www.w3.org/2000/svg" viewBox="0 0 24 24" width="200" height="200">
  <title>Global Pulse - Larger, Thinner Heartbeat</title>
  
  <circle cx="12" cy="12" r="10" stroke="#2C3E50" stroke-width="2" fill="none" />

  <path d="M 5 9 L 6 6 L 10 4.5 L 13 5.5 L 14.5 7 L 17.5 8.5 L 16.5 10 L 15.5 11.5 L 14.5 14 L 13 17 L 11.5 19 L 10 18 L 10 15 L 10.5 13 L 9.5 12 L 7 11.5 L 5.5 10.5 Z" 
        stroke="#2C3E50" stroke-width="1.5" stroke-linejoin="round" fill="none" />
        
  <path d="M 16.5 13.5 L 17.5 13 L 18.5 15 L 17.5 17 L 16.5 16 Z" 
        stroke="#2C3E50" stroke-width="1.5" stroke-linejoin="round" fill="none" />

  <path d="M 2 12 H 7.5 L 9 6 L 11.5 20 L 14.5 2 L 16.5 12 H 22" 
        stroke="#E74C3C" stroke-width="1.5" stroke-linecap="round" stroke-linejoin="round" fill="none" />
</svg>